<mxfile host="app.diagrams.net" agent="Mozilla/5.0 (X11; Linux x86_64) AppleWebKit/537.36 (KHTML, like Gecko) Chrome/131.0.0.0 Safari/537.36" version="26.0.10">
  <diagram name="Page-1" id="vw5VdvsMyjHQYxQG2XbU">
    <mxGraphModel>
      <root>
        <mxCell id="0" />
        <mxCell id="1" parent="0" />
        <mxCell id="2" value="Start" style="whiteSpace=wrap;strokeWidth=2;" vertex="1" parent="1">
          <mxGeometry x="206" y="8" width="94" height="54" as="geometry" />
        </mxCell>
        <mxCell id="3" value="Step 1" style="rounded=1;arcSize=20;strokeWidth=2" vertex="1" parent="1">
          <mxGeometry x="215" y="133" width="76" height="54" as="geometry" />
        </mxCell>
        <mxCell id="4" value="Step 2" style="rounded=1;arcSize=20;strokeWidth=2" vertex="1" parent="1">
          <mxGeometry x="148" y="258" width="76" height="54" as="geometry" />
        </mxCell>
        <mxCell id="5" value="Step 3" style="rounded=1;arcSize=20;strokeWidth=2" vertex="1" parent="1">
          <mxGeometry x="418" y="258" width="76" height="54" as="geometry" />
        </mxCell>
        <mxCell id="6" value="Step 4" style="rounded=1;arcSize=20;strokeWidth=2" vertex="1" parent="1">
          <mxGeometry x="148" y="383" width="76" height="54" as="geometry" />
        </mxCell>
        <mxCell id="7" value="Step 5" style="rounded=1;arcSize=20;strokeWidth=2" vertex="1" parent="1">
          <mxGeometry x="418" y="383" width="76" height="54" as="geometry" />
        </mxCell>
        <mxCell id="8" value="Step 6" style="rounded=1;arcSize=20;strokeWidth=2" vertex="1" parent="1">
          <mxGeometry x="12" y="508" width="76" height="54" as="geometry" />
        </mxCell>
        <mxCell id="9" value="Step 7" style="rounded=1;arcSize=20;strokeWidth=2" vertex="1" parent="1">
          <mxGeometry x="215" y="508" width="76" height="54" as="geometry" />
        </mxCell>
        <mxCell id="10" value="Step 8" style="rounded=1;arcSize=20;strokeWidth=2" vertex="1" parent="1">
          <mxGeometry x="418" y="508" width="76" height="54" as="geometry" />
        </mxCell>
        <mxCell id="11" value="Step 9" style="rounded=1;arcSize=20;strokeWidth=2" vertex="1" parent="1">
          <mxGeometry x="12" y="633" width="76" height="54" as="geometry" />
        </mxCell>
        <mxCell id="12" value="Step 10" style="rounded=1;arcSize=20;strokeWidth=2" vertex="1" parent="1">
          <mxGeometry x="211" y="633" width="85" height="54" as="geometry" />
        </mxCell>
        <mxCell id="13" value="Step 11" style="rounded=1;arcSize=20;strokeWidth=2" vertex="1" parent="1">
          <mxGeometry x="414" y="633" width="84" height="54" as="geometry" />
        </mxCell>
        <mxCell id="14" value="Step 12" style="rounded=1;arcSize=20;strokeWidth=2" vertex="1" parent="1">
          <mxGeometry x="8" y="758" width="85" height="54" as="geometry" />
        </mxCell>
        <mxCell id="15" value="Step 13" style="rounded=1;arcSize=20;strokeWidth=2" vertex="1" parent="1">
          <mxGeometry x="211" y="758" width="85" height="54" as="geometry" />
        </mxCell>
        <mxCell id="16" value="Step 14" style="rounded=1;arcSize=20;strokeWidth=2" vertex="1" parent="1">
          <mxGeometry x="413" y="758" width="85" height="54" as="geometry" />
        </mxCell>
        <mxCell id="17" value="Step 15" style="rounded=1;arcSize=20;strokeWidth=2" vertex="1" parent="1">
          <mxGeometry x="8" y="883" width="85" height="54" as="geometry" />
        </mxCell>
        <mxCell id="18" value="Step 16" style="rounded=1;arcSize=20;strokeWidth=2" vertex="1" parent="1">
          <mxGeometry x="143" y="883" width="85" height="54" as="geometry" />
        </mxCell>
        <mxCell id="19" value="Step 17" style="rounded=1;arcSize=20;strokeWidth=2" vertex="1" parent="1">
          <mxGeometry x="278" y="883" width="85" height="54" as="geometry" />
        </mxCell>
        <mxCell id="20" value="Step 18" style="rounded=1;arcSize=20;strokeWidth=2" vertex="1" parent="1">
          <mxGeometry x="413" y="883" width="85" height="54" as="geometry" />
        </mxCell>
        <mxCell id="21" value="Step 19" style="rounded=1;arcSize=20;strokeWidth=2" vertex="1" parent="1">
          <mxGeometry x="8" y="1008" width="85" height="54" as="geometry" />
        </mxCell>
        <mxCell id="22" value="Step 20" style="rounded=1;arcSize=20;strokeWidth=2" vertex="1" parent="1">
          <mxGeometry x="143" y="1008" width="85" height="54" as="geometry" />
        </mxCell>
        <mxCell id="23" value="Step 21" style="rounded=1;arcSize=20;strokeWidth=2" vertex="1" parent="1">
          <mxGeometry x="278" y="1008" width="85" height="54" as="geometry" />
        </mxCell>
        <mxCell id="24" value="Step 22" style="rounded=1;arcSize=20;strokeWidth=2" vertex="1" parent="1">
          <mxGeometry x="413" y="1008" width="85" height="54" as="geometry" />
        </mxCell>
        <mxCell id="25" value="Step 23" style="rounded=1;arcSize=20;strokeWidth=2" vertex="1" parent="1">
          <mxGeometry x="8" y="1133" width="85" height="54" as="geometry" />
        </mxCell>
        <mxCell id="26" value="Step 24" style="rounded=1;arcSize=20;strokeWidth=2" vertex="1" parent="1">
          <mxGeometry x="143" y="1133" width="85" height="54" as="geometry" />
        </mxCell>
        <mxCell id="27" value="Step 25" style="rounded=1;arcSize=20;strokeWidth=2" vertex="1" parent="1">
          <mxGeometry x="278" y="1133" width="85" height="54" as="geometry" />
        </mxCell>
        <mxCell id="28" value="Step 26" style="rounded=1;arcSize=20;strokeWidth=2" vertex="1" parent="1">
          <mxGeometry x="413" y="1133" width="85" height="54" as="geometry" />
        </mxCell>
        <mxCell id="29" value="Step 27" style="rounded=1;arcSize=20;strokeWidth=2" vertex="1" parent="1">
          <mxGeometry x="8" y="1258" width="85" height="54" as="geometry" />
        </mxCell>
        <mxCell id="30" value="Step 28" style="rounded=1;arcSize=20;strokeWidth=2" vertex="1" parent="1">
          <mxGeometry x="143" y="1258" width="85" height="54" as="geometry" />
        </mxCell>
        <mxCell id="31" value="Step 29" style="rounded=1;arcSize=20;strokeWidth=2" vertex="1" parent="1">
          <mxGeometry x="278" y="1258" width="85" height="54" as="geometry" />
        </mxCell>
        <mxCell id="32" value="Step 30" style="rounded=1;arcSize=20;strokeWidth=2" vertex="1" parent="1">
          <mxGeometry x="413" y="1258" width="85" height="54" as="geometry" />
        </mxCell>
        <mxCell id="33" value="Step 31" style="rounded=1;arcSize=20;strokeWidth=2" vertex="1" parent="1">
          <mxGeometry x="8" y="1383" width="85" height="54" as="geometry" />
        </mxCell>
        <mxCell id="34" value="Step 32" style="rounded=1;arcSize=20;strokeWidth=2" vertex="1" parent="1">
          <mxGeometry x="143" y="1383" width="85" height="54" as="geometry" />
        </mxCell>
        <mxCell id="35" value="Step 33" style="rounded=1;arcSize=20;strokeWidth=2" vertex="1" parent="1">
          <mxGeometry x="278" y="1383" width="85" height="54" as="geometry" />
        </mxCell>
        <mxCell id="36" value="Step 34" style="rounded=1;arcSize=20;strokeWidth=2" vertex="1" parent="1">
          <mxGeometry x="413" y="1383" width="85" height="54" as="geometry" />
        </mxCell>
        <mxCell id="37" value="Step 35" style="rounded=1;arcSize=20;strokeWidth=2" vertex="1" parent="1">
          <mxGeometry x="8" y="1508" width="85" height="54" as="geometry" />
        </mxCell>
        <mxCell id="38" value="Step 36" style="rounded=1;arcSize=20;strokeWidth=2" vertex="1" parent="1">
          <mxGeometry x="143" y="1508" width="85" height="54" as="geometry" />
        </mxCell>
        <mxCell id="39" value="Step 37" style="rounded=1;arcSize=20;strokeWidth=2" vertex="1" parent="1">
          <mxGeometry x="278" y="1508" width="85" height="54" as="geometry" />
        </mxCell>
        <mxCell id="40" value="Step 38" style="rounded=1;arcSize=20;strokeWidth=2" vertex="1" parent="1">
          <mxGeometry x="413" y="1508" width="85" height="54" as="geometry" />
        </mxCell>
        <mxCell id="41" value="Step 39" style="rounded=1;arcSize=20;strokeWidth=2" vertex="1" parent="1">
          <mxGeometry x="8" y="1633" width="85" height="54" as="geometry" />
        </mxCell>
        <mxCell id="42" value="Step 40" style="rounded=1;arcSize=20;strokeWidth=2" vertex="1" parent="1">
          <mxGeometry x="143" y="1633" width="85" height="54" as="geometry" />
        </mxCell>
        <mxCell id="43" value="Step 41" style="rounded=1;arcSize=20;strokeWidth=2" vertex="1" parent="1">
          <mxGeometry x="278" y="1633" width="85" height="54" as="geometry" />
        </mxCell>
        <mxCell id="44" value="Step 42" style="rounded=1;arcSize=20;strokeWidth=2" vertex="1" parent="1">
          <mxGeometry x="413" y="1633" width="85" height="54" as="geometry" />
        </mxCell>
        <mxCell id="45" value="Step 43" style="rounded=1;arcSize=20;strokeWidth=2" vertex="1" parent="1">
          <mxGeometry x="8" y="1758" width="85" height="54" as="geometry" />
        </mxCell>
        <mxCell id="46" value="Step 44" style="rounded=1;arcSize=20;strokeWidth=2" vertex="1" parent="1">
          <mxGeometry x="143" y="1758" width="85" height="54" as="geometry" />
        </mxCell>
        <mxCell id="47" value="Step 45" style="rounded=1;arcSize=20;strokeWidth=2" vertex="1" parent="1">
          <mxGeometry x="278" y="1758" width="85" height="54" as="geometry" />
        </mxCell>
        <mxCell id="48" value="Step 46" style="rounded=1;arcSize=20;strokeWidth=2" vertex="1" parent="1">
          <mxGeometry x="413" y="1758" width="85" height="54" as="geometry" />
        </mxCell>
        <mxCell id="49" value="Step 47" style="rounded=1;arcSize=20;strokeWidth=2" vertex="1" parent="1">
          <mxGeometry x="8" y="1883" width="85" height="54" as="geometry" />
        </mxCell>
        <mxCell id="50" value="Step 48" style="rounded=1;arcSize=20;strokeWidth=2" vertex="1" parent="1">
          <mxGeometry x="143" y="1883" width="85" height="54" as="geometry" />
        </mxCell>
        <mxCell id="51" value="Step 49" style="rounded=1;arcSize=20;strokeWidth=2" vertex="1" parent="1">
          <mxGeometry x="278" y="1883" width="85" height="54" as="geometry" />
        </mxCell>
        <mxCell id="52" value="Step 1" style="curved=1;startArrow=none;endArrow=block;exitX=0.5;exitY=1;entryX=0.5;entryY=0;" edge="1" parent="1" source="2" target="3">
          <mxGeometry relative="1" as="geometry">
            <Array as="points" />
          </mxGeometry>
        </mxCell>
        <mxCell id="53" value="Step 2" style="curved=1;startArrow=none;endArrow=block;exitX=0.12;exitY=1;entryX=0.5;entryY=0;" edge="1" parent="1" source="3" target="4">
          <mxGeometry relative="1" as="geometry">
            <Array as="points">
              <mxPoint x="186" y="223" />
            </Array>
          </mxGeometry>
        </mxCell>
        <mxCell id="54" value="Step 3" style="curved=1;startArrow=none;endArrow=block;exitX=1.01;exitY=0.72;entryX=0.5;entryY=0;" edge="1" parent="1" source="3" target="5">
          <mxGeometry relative="1" as="geometry">
            <Array as="points">
              <mxPoint x="456" y="223" />
            </Array>
          </mxGeometry>
        </mxCell>
        <mxCell id="55" value="Step 4" style="curved=1;startArrow=none;endArrow=block;exitX=0.5;exitY=1;entryX=0.5;entryY=0;" edge="1" parent="1" source="4" target="6">
          <mxGeometry relative="1" as="geometry">
            <Array as="points" />
          </mxGeometry>
        </mxCell>
        <mxCell id="56" value="Step 5" style="curved=1;startArrow=none;endArrow=block;exitX=0.5;exitY=1;entryX=0.5;entryY=0;" edge="1" parent="1" source="5" target="7">
          <mxGeometry relative="1" as="geometry">
            <Array as="points" />
          </mxGeometry>
        </mxCell>
        <mxCell id="57" value="Step 6" style="curved=1;startArrow=none;endArrow=block;exitX=-0.01;exitY=0.83;entryX=0.51;entryY=0;" edge="1" parent="1" source="6" target="8">
          <mxGeometry relative="1" as="geometry">
            <Array as="points">
              <mxPoint x="51" y="473" />
            </Array>
          </mxGeometry>
        </mxCell>
        <mxCell id="58" value="Step 7" style="curved=1;startArrow=none;endArrow=block;exitX=0.88;exitY=1;entryX=0.5;entryY=0;" edge="1" parent="1" source="6" target="9">
          <mxGeometry relative="1" as="geometry">
            <Array as="points">
              <mxPoint x="253" y="473" />
            </Array>
          </mxGeometry>
        </mxCell>
        <mxCell id="59" value="Step 8" style="curved=1;startArrow=none;endArrow=block;exitX=0.5;exitY=1;entryX=0.5;entryY=0;" edge="1" parent="1" source="7" target="10">
          <mxGeometry relative="1" as="geometry">
            <Array as="points" />
          </mxGeometry>
        </mxCell>
        <mxCell id="60" value="Step 9" style="curved=1;startArrow=none;endArrow=block;exitX=0.51;exitY=1;entryX=0.51;entryY=0;" edge="1" parent="1" source="8" target="11">
          <mxGeometry relative="1" as="geometry">
            <Array as="points" />
          </mxGeometry>
        </mxCell>
        <mxCell id="61" value="Step 10" style="curved=1;startArrow=none;endArrow=block;exitX=0.5;exitY=1;entryX=0.5;entryY=0;" edge="1" parent="1" source="9" target="12">
          <mxGeometry relative="1" as="geometry">
            <Array as="points" />
          </mxGeometry>
        </mxCell>
        <mxCell id="62" value="Step 11" style="curved=1;startArrow=none;endArrow=block;exitX=0.5;exitY=1;entryX=0.5;entryY=0;" edge="1" parent="1" source="10" target="13">
          <mxGeometry relative="1" as="geometry">
            <Array as="points" />
          </mxGeometry>
        </mxCell>
        <mxCell id="63" value="Step 12" style="curved=1;startArrow=none;endArrow=block;exitX=0.51;exitY=1;entryX=0.5;entryY=0;" edge="1" parent="1" source="11" target="14">
          <mxGeometry relative="1" as="geometry">
            <Array as="points" />
          </mxGeometry>
        </mxCell>
        <mxCell id="64" value="Step 13" style="curved=1;startArrow=none;endArrow=block;exitX=0.5;exitY=1;entryX=0.5;entryY=0;" edge="1" parent="1" source="12" target="15">
          <mxGeometry relative="1" as="geometry">
            <Array as="points" />
          </mxGeometry>
        </mxCell>
        <mxCell id="65" value="Step 14" style="curved=1;startArrow=none;endArrow=block;exitX=0.5;exitY=1;entryX=0.51;entryY=0;" edge="1" parent="1" source="13" target="16">
          <mxGeometry relative="1" as="geometry">
            <Array as="points" />
          </mxGeometry>
        </mxCell>
        <mxCell id="66" value="Step 15" style="curved=1;startArrow=none;endArrow=block;exitX=0.5;exitY=1;entryX=0.5;entryY=0;" edge="1" parent="1" source="14" target="17">
          <mxGeometry relative="1" as="geometry">
            <Array as="points" />
          </mxGeometry>
        </mxCell>
        <mxCell id="67" value="Step 16" style="curved=1;startArrow=none;endArrow=block;exitX=0.15;exitY=1;entryX=0.5;entryY=0;" edge="1" parent="1" source="15" target="18">
          <mxGeometry relative="1" as="geometry">
            <Array as="points">
              <mxPoint x="186" y="848" />
            </Array>
          </mxGeometry>
        </mxCell>
        <mxCell id="68" value="Step 17" style="curved=1;startArrow=none;endArrow=block;exitX=0.84;exitY=1;entryX=0.5;entryY=0;" edge="1" parent="1" source="15" target="19">
          <mxGeometry relative="1" as="geometry">
            <Array as="points">
              <mxPoint x="321" y="848" />
            </Array>
          </mxGeometry>
        </mxCell>
        <mxCell id="69" value="Step 18" style="curved=1;startArrow=none;endArrow=block;exitX=0.51;exitY=1;entryX=0.51;entryY=0;" edge="1" parent="1" source="16" target="20">
          <mxGeometry relative="1" as="geometry">
            <Array as="points" />
          </mxGeometry>
        </mxCell>
        <mxCell id="70" value="Step 19" style="curved=1;startArrow=none;endArrow=block;exitX=0.5;exitY=1;entryX=0.5;entryY=0;" edge="1" parent="1" source="17" target="21">
          <mxGeometry relative="1" as="geometry">
            <Array as="points" />
          </mxGeometry>
        </mxCell>
        <mxCell id="71" value="Step 20" style="curved=1;startArrow=none;endArrow=block;exitX=0.5;exitY=1;entryX=0.5;entryY=0;" edge="1" parent="1" source="18" target="22">
          <mxGeometry relative="1" as="geometry">
            <Array as="points" />
          </mxGeometry>
        </mxCell>
        <mxCell id="72" value="Step 21" style="curved=1;startArrow=none;endArrow=block;exitX=0.5;exitY=1;entryX=0.5;entryY=0;" edge="1" parent="1" source="19" target="23">
          <mxGeometry relative="1" as="geometry">
            <Array as="points" />
          </mxGeometry>
        </mxCell>
        <mxCell id="73" value="Step 22" style="curved=1;startArrow=none;endArrow=block;exitX=0.51;exitY=1;entryX=0.51;entryY=0;" edge="1" parent="1" source="20" target="24">
          <mxGeometry relative="1" as="geometry">
            <Array as="points" />
          </mxGeometry>
        </mxCell>
        <mxCell id="74" value="Step 23" style="curved=1;startArrow=none;endArrow=block;exitX=0.5;exitY=1;entryX=0.5;entryY=0;" edge="1" parent="1" source="21" target="25">
          <mxGeometry relative="1" as="geometry">
            <Array as="points" />
          </mxGeometry>
        </mxCell>
        <mxCell id="75" value="Step 24" style="curved=1;startArrow=none;endArrow=block;exitX=0.5;exitY=1;entryX=0.5;entryY=0;" edge="1" parent="1" source="22" target="26">
          <mxGeometry relative="1" as="geometry">
            <Array as="points" />
          </mxGeometry>
        </mxCell>
        <mxCell id="76" value="Step 25" style="curved=1;startArrow=none;endArrow=block;exitX=0.5;exitY=1;entryX=0.5;entryY=0;" edge="1" parent="1" source="23" target="27">
          <mxGeometry relative="1" as="geometry">
            <Array as="points" />
          </mxGeometry>
        </mxCell>
        <mxCell id="77" value="Step 26" style="curved=1;startArrow=none;endArrow=block;exitX=0.51;exitY=1;entryX=0.51;entryY=0;" edge="1" parent="1" source="24" target="28">
          <mxGeometry relative="1" as="geometry">
            <Array as="points" />
          </mxGeometry>
        </mxCell>
        <mxCell id="78" value="Step 27" style="curved=1;startArrow=none;endArrow=block;exitX=0.5;exitY=1;entryX=0.5;entryY=0;" edge="1" parent="1" source="25" target="29">
          <mxGeometry relative="1" as="geometry">
            <Array as="points" />
          </mxGeometry>
        </mxCell>
        <mxCell id="79" value="Step 28" style="curved=1;startArrow=none;endArrow=block;exitX=0.5;exitY=1;entryX=0.5;entryY=0;" edge="1" parent="1" source="26" target="30">
          <mxGeometry relative="1" as="geometry">
            <Array as="points" />
          </mxGeometry>
        </mxCell>
        <mxCell id="80" value="Step 29" style="curved=1;startArrow=none;endArrow=block;exitX=0.5;exitY=1;entryX=0.5;entryY=0;" edge="1" parent="1" source="27" target="31">
          <mxGeometry relative="1" as="geometry">
            <Array as="points" />
          </mxGeometry>
        </mxCell>
        <mxCell id="81" value="Step 30" style="curved=1;startArrow=none;endArrow=block;exitX=0.51;exitY=1;entryX=0.51;entryY=0;" edge="1" parent="1" source="28" target="32">
          <mxGeometry relative="1" as="geometry">
            <Array as="points" />
          </mxGeometry>
        </mxCell>
        <mxCell id="82" value="Step 31" style="curved=1;startArrow=none;endArrow=block;exitX=0.5;exitY=1;entryX=0.5;entryY=0;" edge="1" parent="1" source="29" target="33">
          <mxGeometry relative="1" as="geometry">
            <Array as="points" />
          </mxGeometry>
        </mxCell>
        <mxCell id="83" value="Step 32" style="curved=1;startArrow=none;endArrow=block;exitX=0.5;exitY=1;entryX=0.5;entryY=0;" edge="1" parent="1" source="30" target="34">
          <mxGeometry relative="1" as="geometry">
            <Array as="points" />
          </mxGeometry>
        </mxCell>
        <mxCell id="84" value="Step 33" style="curved=1;startArrow=none;endArrow=block;exitX=0.5;exitY=1;entryX=0.5;entryY=0;" edge="1" parent="1" source="31" target="35">
          <mxGeometry relative="1" as="geometry">
            <Array as="points" />
          </mxGeometry>
        </mxCell>
        <mxCell id="85" value="Step 34" style="curved=1;startArrow=none;endArrow=block;exitX=0.51;exitY=1;entryX=0.51;entryY=0;" edge="1" parent="1" source="32" target="36">
          <mxGeometry relative="1" as="geometry">
            <Array as="points" />
          </mxGeometry>
        </mxCell>
        <mxCell id="86" value="Step 35" style="curved=1;startArrow=none;endArrow=block;exitX=0.5;exitY=1;entryX=0.5;entryY=0;" edge="1" parent="1" source="33" target="37">
          <mxGeometry relative="1" as="geometry">
            <Array as="points" />
          </mxGeometry>
        </mxCell>
        <mxCell id="87" value="Step 36" style="curved=1;startArrow=none;endArrow=block;exitX=0.5;exitY=1;entryX=0.5;entryY=0;" edge="1" parent="1" source="34" target="38">
          <mxGeometry relative="1" as="geometry">
            <Array as="points" />
          </mxGeometry>
        </mxCell>
        <mxCell id="88" value="Step 37" style="curved=1;startArrow=none;endArrow=block;exitX=0.5;exitY=1;entryX=0.5;entryY=0;" edge="1" parent="1" source="35" target="39">
          <mxGeometry relative="1" as="geometry">
            <Array as="points" />
          </mxGeometry>
        </mxCell>
        <mxCell id="89" value="Step 38" style="curved=1;startArrow=none;endArrow=block;exitX=0.51;exitY=1;entryX=0.51;entryY=0;" edge="1" parent="1" source="36" target="40">
          <mxGeometry relative="1" as="geometry">
            <Array as="points" />
          </mxGeometry>
        </mxCell>
        <mxCell id="90" value="Step 39" style="curved=1;startArrow=none;endArrow=block;exitX=0.5;exitY=1;entryX=0.5;entryY=0;" edge="1" parent="1" source="37" target="41">
          <mxGeometry relative="1" as="geometry">
            <Array as="points" />
          </mxGeometry>
        </mxCell>
        <mxCell id="91" value="Step 40" style="curved=1;startArrow=none;endArrow=block;exitX=0.5;exitY=1;entryX=0.5;entryY=0;" edge="1" parent="1" source="38" target="42">
          <mxGeometry relative="1" as="geometry">
            <Array as="points" />
          </mxGeometry>
        </mxCell>
        <mxCell id="92" value="Step 41" style="curved=1;startArrow=none;endArrow=block;exitX=0.5;exitY=1;entryX=0.5;entryY=0;" edge="1" parent="1" source="39" target="43">
          <mxGeometry relative="1" as="geometry">
            <Array as="points" />
          </mxGeometry>
        </mxCell>
        <mxCell id="93" value="Step 42" style="curved=1;startArrow=none;endArrow=block;exitX=0.51;exitY=1;entryX=0.51;entryY=0;" edge="1" parent="1" source="40" target="44">
          <mxGeometry relative="1" as="geometry">
            <Array as="points" />
          </mxGeometry>
        </mxCell>
        <mxCell id="94" value="Step 43" style="curved=1;startArrow=none;endArrow=block;exitX=0.5;exitY=1;entryX=0.5;entryY=0;" edge="1" parent="1" source="41" target="45">
          <mxGeometry relative="1" as="geometry">
            <Array as="points" />
          </mxGeometry>
        </mxCell>
        <mxCell id="95" value="Step 44" style="curved=1;startArrow=none;endArrow=block;exitX=0.5;exitY=1;entryX=0.5;entryY=0;" edge="1" parent="1" source="42" target="46">
          <mxGeometry relative="1" as="geometry">
            <Array as="points" />
          </mxGeometry>
        </mxCell>
        <mxCell id="96" value="Step 45" style="curved=1;startArrow=none;endArrow=block;exitX=0.5;exitY=1;entryX=0.5;entryY=0;" edge="1" parent="1" source="43" target="47">
          <mxGeometry relative="1" as="geometry">
            <Array as="points" />
          </mxGeometry>
        </mxCell>
        <mxCell id="97" value="Step 46" style="curved=1;startArrow=none;endArrow=block;exitX=0.51;exitY=1;entryX=0.51;entryY=0;" edge="1" parent="1" source="44" target="48">
          <mxGeometry relative="1" as="geometry">
            <Array as="points" />
          </mxGeometry>
        </mxCell>
        <mxCell id="98" value="Step 47" style="curved=1;startArrow=none;endArrow=block;exitX=0.5;exitY=1;entryX=0.5;entryY=0;" edge="1" parent="1" source="45" target="49">
          <mxGeometry relative="1" as="geometry">
            <Array as="points" />
          </mxGeometry>
        </mxCell>
        <mxCell id="99" value="Step 48" style="curved=1;startArrow=none;endArrow=block;exitX=0.5;exitY=1;entryX=0.5;entryY=0;" edge="1" parent="1" source="46" target="50">
          <mxGeometry relative="1" as="geometry">
            <Array as="points" />
          </mxGeometry>
        </mxCell>
        <mxCell id="100" value="Step 49" style="curved=1;startArrow=none;endArrow=block;exitX=0.5;exitY=1;entryX=0.5;entryY=0;" edge="1" parent="1" source="47" target="51">
          <mxGeometry relative="1" as="geometry">
            <Array as="points" />
          </mxGeometry>
        </mxCell>
      </root>
    </mxGraphModel>
  </diagram>
</mxfile>
